<svg width="21" height="20" viewBox="0 0 21 20" fill="none" xmlns="http://www.w3.org/2000/svg">
<path d="M0.00195312 10.0016C0.00311667 14.9209 3.58036 19.1096 8.43895 19.8806V12.8916H5.90195V10.0016H8.44195V7.80156C8.32841 6.7591 8.68447 5.72015 9.41359 4.96649C10.1427 4.21283 11.1693 3.82257 12.215 3.90156C12.9655 3.91368 13.7141 3.98052 14.455 4.10156V6.56056H13.191C12.7558 6.50356 12.3183 6.64728 12.0017 6.95122C11.6851 7.25517 11.5237 7.68644 11.563 8.12356V10.0016H14.334L13.891 12.8926H11.563V19.8806C16.8174 19.0502 20.502 14.2513 19.9475 8.96063C19.3929 3.66993 14.7932 -0.260515 9.48078 0.0167345C4.16831 0.293984 0.0027976 4.68186 0.00195312 10.0016Z" fill="#777777"/>
</svg>

