<svg width="254" height="112" viewBox="0 0 254 112" fill="none" xmlns="http://www.w3.org/2000/svg">
<path d="M11.8578 122H62.9947C55.9878 111.773 64.5443 91.186 79.0968 79.944C71.5512 74.933 61.9167 71.2076 49.3851 71.2076C18.9995 71.2076 0 93.7595 0 112.519C0 118.614 3.30133 122 11.8578 122ZM49.3851 60.8464C61.9841 60.8464 72.831 49.469 72.831 34.7732C72.831 20.2129 61.9167 9.44507 49.3851 9.44507C36.9209 9.44507 25.8716 20.4838 25.939 34.9087C25.939 49.469 36.8536 60.8464 49.3851 60.8464ZM242.143 122C250.699 122 254 118.614 254 112.519C254 93.7595 235.001 71.2076 204.615 71.2076C192.016 71.2076 182.381 74.933 174.903 79.944C189.389 91.186 197.945 111.773 190.938 122H242.143ZM204.547 60.8464C217.146 60.8464 228.061 49.469 228.061 34.9087C228.061 20.4838 217.079 9.44507 204.547 9.44507C192.083 9.44507 181.101 20.2129 181.101 34.7732C181.101 49.469 192.016 60.8464 204.547 60.8464Z" fill="#686666" fill-opacity="0.85"/>
<path d="M169.378 122H84.7568C74.1115 122 70.3384 118.952 70.3384 112.992C70.3384 95.5203 92.1002 71.4108 127.068 71.4108C161.967 71.4108 183.729 95.5203 183.729 112.992C183.729 118.952 179.956 122 169.378 122Z" fill="#939393" fill-opacity="0.85"/>
<path d="M154.017 29.3554C154.017 46.2861 141.553 59.2888 127.068 59.2888C112.649 59.2888 100.185 46.2861 100.185 29.4909C100.118 12.8989 112.717 0.234833 127.068 0.234833C141.485 0.234833 154.017 12.6281 154.017 29.3554Z" fill="#939393" fill-opacity="0.85"/>
</svg>

